<svg width="38" height="39" viewBox="0 0 38 39" fill="none" xmlns="http://www.w3.org/2000/svg">
<circle cx="19" cy="19.5" r="19" fill="#E8F0F5"/>
<path d="M15 10.25H12C10.7574 10.25 9.75 11.2574 9.75 12.5V15.5C9.75 16.7426 10.7574 17.75 12 17.75H15C16.2426 17.75 17.25 16.7426 17.25 15.5V12.5C17.25 11.2574 16.2426 10.25 15 10.25Z" stroke="#868686" stroke-width="1.5"/>
<path d="M26 10.25H23C21.7574 10.25 20.75 11.2574 20.75 12.5V15.5C20.75 16.7426 21.7574 17.75 23 17.75H26C27.2426 17.75 28.25 16.7426 28.25 15.5V12.5C28.25 11.2574 27.2426 10.25 26 10.25Z" stroke="#868686" stroke-width="1.5"/>
<path d="M26 21.25H23C21.7574 21.25 20.75 22.2574 20.75 23.5V26.5C20.75 27.7426 21.7574 28.75 23 28.75H26C27.2426 28.75 28.25 27.7426 28.25 26.5V23.5C28.25 22.2574 27.2426 21.25 26 21.25Z" stroke="#868686" stroke-width="1.5"/>
<path d="M15 21.25H12C10.7574 21.25 9.75 22.2574 9.75 23.5V26.5C9.75 27.7426 10.7574 28.75 12 28.75H15C16.2426 28.75 17.25 27.7426 17.25 26.5V23.5C17.25 22.2574 16.2426 21.25 15 21.25Z" stroke="#868686" stroke-width="1.5"/>
</svg>
