<svg width="38" height="39" viewBox="0 0 38 39" fill="none" xmlns="http://www.w3.org/2000/svg">
<circle cx="19" cy="19.5" r="19" fill="#E8F0F5"/>
<g clip-path="url(#clip0_1_599)">
<mask id="mask0_1_599" style="mask-type:luminance" maskUnits="userSpaceOnUse" x="9" y="9" width="20" height="21">
<path d="M29 9.5H9V29.5H29V9.5Z" fill="white"/>
</mask>
<g mask="url(#mask0_1_599)">
<path d="M27.5 11.3048C27.0315 10.9131 26.4826 10.6293 25.8921 10.4736C25.3016 10.3179 24.684 10.2942 24.0833 10.404L20.8983 10.9823C20.163 11.1174 19.4944 11.4957 19 12.0565C18.5043 11.4947 17.8338 11.1163 17.0967 10.9823L13.9167 10.404C13.316 10.2941 12.6984 10.3175 12.1078 10.4727C11.5172 10.6279 10.9679 10.911 10.4988 11.302C10.0297 11.693 9.65232 12.1824 9.39332 12.7354C9.13431 13.2885 9.00004 13.8916 9 14.5023V23.4965C9.00005 24.4722 9.34248 25.4169 9.96761 26.166C10.5927 26.9151 11.4609 27.421 12.4208 27.5957L17.6592 28.5482C18.5458 28.7093 19.4542 28.7093 20.3408 28.5482L25.5833 27.5957C26.5425 27.4201 27.4097 26.9138 28.034 26.1648C28.6583 25.4158 29.0001 24.4716 29 23.4965V14.5023C29.0004 13.8919 28.8662 13.2888 28.6069 12.7362C28.3476 12.1835 27.9697 11.6948 27.5 11.3048ZM18.1667 26.9423C18.0967 26.9323 18.0267 26.9207 17.9567 26.9082L12.7192 25.9565C12.1431 25.8517 11.6222 25.548 11.2471 25.0985C10.872 24.6489 10.6666 24.082 10.6667 23.4965V14.5023C10.6667 13.8393 10.9301 13.2034 11.3989 12.7346C11.8677 12.2657 12.5036 12.0023 13.1667 12.0023C13.3176 12.0027 13.4682 12.0163 13.6167 12.0432L16.8 12.6265C17.183 12.6966 17.5294 12.8986 17.779 13.1974C18.0287 13.4962 18.1658 13.873 18.1667 14.2623V26.9423ZM27.3333 23.4965C27.3334 24.082 27.128 24.6489 26.7529 25.0985C26.3778 25.548 25.8569 25.8517 25.2808 25.9565L20.0433 26.9082C19.9733 26.9207 19.9033 26.9323 19.8333 26.9423V14.2623C19.8333 13.872 19.9702 13.494 20.2203 13.1943C20.4703 12.8946 20.8176 12.6922 21.2017 12.6223L24.3858 12.039C24.7464 11.9734 25.117 11.9879 25.4714 12.0814C25.8258 12.175 26.1553 12.3453 26.4365 12.5803C26.7178 12.8154 26.9439 13.1094 27.0988 13.4415C27.2538 13.7736 27.3339 14.1358 27.3333 14.5023V23.4965Z" fill="#868686"/>
</g>
</g>
<defs>
<clipPath id="clip0_1_599">
<rect width="20" height="20" fill="white" transform="translate(9 9.5)"/>
</clipPath>
</defs>
</svg>
