<svg width="38" height="39" viewBox="0 0 38 39" fill="none" xmlns="http://www.w3.org/2000/svg">
<circle cx="19" cy="19.5" r="19" fill="#E8F0F5"/>
<g clip-path="url(#clip0_1_595)">
<mask id="mask0_1_595" style="mask-type:luminance" maskUnits="userSpaceOnUse" x="9" y="9" width="20" height="21">
<path d="M29 9.5H9V29.5H29V9.5Z" fill="white"/>
</mask>
<g mask="url(#mask0_1_595)">
<path d="M29 22.8339V27.0005C29 27.6636 28.7366 28.2994 28.2678 28.7683C27.7989 29.2371 27.163 29.5005 26.5 29.5005H22.3333C21.1642 29.4993 20.016 29.1907 19.0039 28.6056C17.9917 28.0206 17.1512 27.1796 16.5667 26.1672C17.1949 26.1627 17.821 26.0934 18.435 25.9605C18.9026 26.5452 19.4958 27.0172 20.1707 27.3415C20.8455 27.6658 21.5846 27.8341 22.3333 27.8339H26.5C26.721 27.8339 26.933 27.7461 27.0893 27.5898C27.2455 27.4335 27.3333 27.2215 27.3333 27.0005V22.8339C27.3331 22.0849 27.1643 21.3456 26.8395 20.6707C26.5146 19.9959 26.042 19.4028 25.4567 18.9355C25.5907 18.3216 25.6611 17.6955 25.6667 17.0672C26.6791 17.6517 27.5201 18.4922 28.1051 19.5044C28.6902 20.5166 28.9988 21.6648 29 22.8339ZM23.9808 17.543C24.0588 16.4694 23.9047 15.3916 23.529 14.3828C23.1534 13.374 22.565 12.4579 21.8038 11.6967C21.0426 10.9355 20.1265 10.3471 19.1178 9.97148C18.109 9.59584 17.0311 9.44175 15.9575 9.51968C14.0549 9.73696 12.2974 10.6423 11.016 12.0653C9.73452 13.4883 9.01752 15.3307 9 17.2455V21.4455C9 23.5555 10.2558 24.5005 11.5 24.5005H16.25C18.1657 24.484 20.0092 23.7675 21.4332 22.486C22.8571 21.2044 23.7633 19.4464 23.9808 17.543ZM20.625 12.8763C21.2166 13.4693 21.674 14.1824 21.9661 14.9673C22.2582 15.7523 22.3784 16.5909 22.3183 17.4264C22.1405 18.9128 21.4254 20.2829 20.3078 21.2788C19.1901 22.2747 17.747 22.8278 16.25 22.8339H11.5C10.7267 22.8339 10.6667 21.7714 10.6667 21.4455V17.2455C10.6736 15.7492 11.2272 14.3069 12.2233 13.1902C13.2193 12.0736 14.5892 11.3594 16.075 11.1822C16.2133 11.1722 16.3517 11.1672 16.49 11.1672C17.2577 11.1665 18.0181 11.3171 18.7276 11.6103C19.4371 11.9036 20.0818 12.3338 20.625 12.8763Z" fill="#868686"/>
</g>
</g>
<defs>
<clipPath id="clip0_1_595">
<rect width="20" height="20" fill="white" transform="translate(9 9.5)"/>
</clipPath>
</defs>
</svg>
