<svg width="18" height="24" viewBox="0 0 18 24" fill="none" xmlns="http://www.w3.org/2000/svg">
<path d="M14.994 2.28842C13.7734 1.19781 12.2786 0.460703 10.6703 0.156437C9.062 -0.147829 7.40118 -0.00773287 5.86658 0.561647C4.33198 1.13103 2.98172 2.10813 1.96111 3.38779C0.940499 4.66746 0.288193 6.20123 0.0743972 7.82402C-0.117581 9.24701 0.0360671 10.6953 0.522339 12.0463C1.00861 13.3974 1.81319 14.6114 2.868 15.5856C3.52006 16.1576 4.0462 16.8588 4.41306 17.6448C4.77993 18.4308 4.97952 19.2845 4.9992 20.1516V20.3124C5.00015 21.2908 5.38922 22.2288 6.08103 22.9206C6.77283 23.6124 7.71084 24.0015 8.6892 24.0024H9.3096C10.288 24.0015 11.226 23.6124 11.9178 22.9206C12.6096 22.2288 12.9986 21.2908 12.9996 20.3124V19.7628C13.0146 18.9964 13.1951 18.2422 13.5285 17.5519C13.8619 16.8616 14.3406 16.2515 14.9316 15.7632C15.89 14.9237 16.6592 13.8901 17.1881 12.7309C17.7169 11.5717 17.9935 10.3134 17.9994 9.03929C18.0053 7.76516 17.7404 6.50433 17.2223 5.34029C16.7042 4.17626 15.9446 3.13679 14.994 2.28842ZM9.3096 22.002H8.688C8.24008 22.0014 7.81069 21.8232 7.49397 21.5065C7.17725 21.1897 6.99903 20.7603 6.9984 20.3124L6.99 20.0028H10.998V20.3124C10.9974 20.7603 10.8191 21.1897 10.5024 21.5065C10.1857 21.8232 9.75631 22.0014 9.3084 22.002H9.3096ZM13.6092 14.262C12.4708 15.2494 11.6485 16.5504 11.2452 18.0024H9.9996V10.818C10.5822 10.6119 11.087 10.2308 11.4448 9.72687C11.8026 9.22297 11.9961 8.62085 11.9988 8.00282C11.9862 7.74619 11.8754 7.50422 11.6893 7.32703C11.5032 7.14985 11.2561 7.05102 10.9992 7.05102C10.7423 7.05102 10.4951 7.14985 10.3091 7.32703C10.123 7.50422 10.0122 7.74619 9.9996 8.00282C9.9996 8.26809 9.89422 8.5225 9.70665 8.71007C9.51907 8.89765 9.26467 9.00303 8.9994 9.00303C8.73413 9.00303 8.47972 8.89765 8.29215 8.71007C8.10458 8.5225 7.9992 8.26809 7.9992 8.00282C7.9992 7.73771 7.89388 7.48346 7.70642 7.296C7.51896 7.10854 7.26471 7.00322 6.9996 7.00322C6.73449 7.00322 6.48023 7.10854 6.29277 7.296C6.10531 7.48346 6 7.73771 6 8.00282C6.00267 8.62085 6.19615 9.22297 6.55399 9.72687C6.91183 10.2308 7.41657 10.6119 7.9992 10.818V18.0024H6.678C6.22695 16.5117 5.38108 15.1708 4.23 14.1216C3.20156 13.1631 2.48561 11.9171 2.17536 10.5459C1.86512 9.17465 1.97498 7.74179 2.49063 6.4339C3.00627 5.12601 3.90381 4.00371 5.06634 3.21315C6.22888 2.42259 7.60253 2.00042 9.0084 2.00162C10.7261 1.99659 12.3844 2.63046 13.6608 3.78002C14.4002 4.43978 14.991 5.24911 15.394 6.1544C15.797 7.0597 16.0031 8.0403 15.9986 9.03124C15.994 10.0222 15.779 11.0009 15.3677 11.9024C14.9564 12.804 14.3582 13.6079 13.6128 14.2608H13.6092V14.262Z" fill="#868686"/>
</svg>
