<svg width="24" height="24" viewBox="0 0 24 24" fill="none" xmlns="http://www.w3.org/2000/svg">
<g clip-path="url(#clip0_1_1008)">
<path d="M17.994 2.28842C16.7734 1.19781 15.2786 0.460703 13.6703 0.156437C12.062 -0.147829 10.4012 -0.00773287 8.86658 0.561647C7.33198 1.13103 5.98172 2.10813 4.96111 3.38779C3.9405 4.66746 3.28819 6.20123 3.0744 7.82402C2.88242 9.24701 3.03607 10.6953 3.52234 12.0463C4.00861 13.3974 4.81319 14.6114 5.868 15.5856C6.52006 16.1576 7.0462 16.8588 7.41306 17.6448C7.77993 18.4308 7.97952 19.2845 7.9992 20.1516V20.3124C8.00015 21.2908 8.38922 22.2288 9.08103 22.9206C9.77283 23.6124 10.7108 24.0015 11.6892 24.0024H12.3096C13.288 24.0015 14.226 23.6124 14.9178 22.9206C15.6096 22.2288 15.9986 21.2908 15.9996 20.3124V19.7628C16.0146 18.9964 16.1951 18.2422 16.5285 17.5519C16.8619 16.8616 17.3406 16.2515 17.9316 15.7632C18.89 14.9237 19.6592 13.8901 20.1881 12.7309C20.7169 11.5717 20.9935 10.3134 20.9994 9.03929C21.0053 7.76516 20.7404 6.50433 20.2223 5.34029C19.7042 4.17626 18.9446 3.13679 17.994 2.28842ZM12.3096 22.002H11.688C11.2401 22.0014 10.8107 21.8232 10.494 21.5065C10.1772 21.1897 9.99903 20.7603 9.9984 20.3124L9.99 20.0028H13.998V20.3124C13.9974 20.7603 13.8191 21.1897 13.5024 21.5065C13.1857 21.8232 12.7563 22.0014 12.3084 22.002H12.3096ZM16.6092 14.262C15.4708 15.2494 14.6485 16.5504 14.2452 18.0024H12.9996V10.818C13.5822 10.6119 14.087 10.2308 14.4448 9.72687C14.8026 9.22297 14.9961 8.62085 14.9988 8.00282C14.9862 7.74619 14.8754 7.50422 14.6893 7.32703C14.5032 7.14985 14.2561 7.05102 13.9992 7.05102C13.7423 7.05102 13.4951 7.14985 13.3091 7.32703C13.123 7.50422 13.0122 7.74619 12.9996 8.00282C12.9996 8.26809 12.8942 8.5225 12.7066 8.71007C12.5191 8.89765 12.2647 9.00303 11.9994 9.00303C11.7341 9.00303 11.4797 8.89765 11.2921 8.71007C11.1046 8.5225 10.9992 8.26809 10.9992 8.00282C10.9992 7.73771 10.8939 7.48346 10.7064 7.296C10.519 7.10854 10.2647 7.00322 9.9996 7.00322C9.73449 7.00322 9.48023 7.10854 9.29277 7.296C9.10531 7.48346 9 7.73771 9 8.00282C9.00267 8.62085 9.19615 9.22297 9.55399 9.72687C9.91183 10.2308 10.4166 10.6119 10.9992 10.818V18.0024H9.678C9.22695 16.5117 8.38108 15.1708 7.23 14.1216C6.20156 13.1631 5.48561 11.9171 5.17536 10.5459C4.86512 9.17465 4.97498 7.74179 5.49063 6.4339C6.00627 5.12601 6.90381 4.00371 8.06634 3.21315C9.22888 2.42259 10.6025 2.00042 12.0084 2.00162C13.7261 1.99659 15.3844 2.63046 16.6608 3.78002C17.4002 4.43978 17.991 5.24911 18.394 6.1544C18.797 7.0597 19.0031 8.0403 18.9986 9.03124C18.994 10.0222 18.779 11.0009 18.3677 11.9024C17.9564 12.804 17.3582 13.6079 16.6128 14.2608H16.6092V14.262Z" fill="#868686"/>
</g>
<defs>
<clipPath id="clip0_1_1008">
<rect width="24" height="24" fill="white"/>
</clipPath>
</defs>
</svg>
