<svg width="38" height="39" viewBox="0 0 38 39" fill="none" xmlns="http://www.w3.org/2000/svg">
<circle cx="19" cy="19.5" r="19" fill="#E8F0F5"/>
<g clip-path="url(#clip0_1_619)">
<mask id="mask0_1_619" style="mask-type:luminance" maskUnits="userSpaceOnUse" x="9" y="9" width="20" height="21">
<path d="M29 9.5H9V29.5H29V9.5Z" fill="white"/>
</mask>
<g mask="url(#mask0_1_619)">
<path d="M23.9945 11.4069C22.9774 10.4982 21.7317 9.88409 20.3915 9.63063C19.0513 9.37717 17.6673 9.49398 16.3886 9.96849C15.1098 10.443 13.9847 11.2572 13.1342 12.3236C12.2838 13.3899 11.7402 14.668 11.562 16.0203C11.402 17.206 11.53 18.4128 11.9351 19.5386C12.3403 20.6643 13.0107 21.6759 13.8895 22.4878C14.433 22.9644 14.8716 23.5487 15.1774 24.2037C15.4833 24.8587 15.6497 25.5701 15.6662 26.2928V26.4269C15.6671 27.2422 15.9913 28.0238 16.5678 28.6003C17.1443 29.1768 17.9259 29.5011 18.7412 29.5019H19.2579C20.0731 29.5011 20.8548 29.1768 21.4312 28.6003C22.0077 28.0238 22.332 27.2422 22.3329 26.4269V25.9694C22.3453 25.3307 22.4957 24.7021 22.7735 24.1268C23.0514 23.5515 23.4503 23.043 23.9429 22.6361C24.7417 21.9365 25.3827 21.0751 25.8235 20.109C26.2643 19.1429 26.4948 18.0942 26.4997 17.0323C26.5045 15.9705 26.2837 14.9197 25.8519 13.9496C25.42 12.9795 24.7869 12.1122 23.9945 11.4053V11.4069ZM19.2579 27.8353H18.7412C18.3678 27.8348 18.0099 27.6863 17.7459 27.4223C17.4818 27.1583 17.3333 26.8003 17.3329 26.4269C17.3329 26.4269 17.327 26.2103 17.3262 26.1686H20.6662V26.4269C20.6658 26.8003 20.5172 27.1583 20.2532 27.4223C19.9892 27.6863 19.6312 27.8348 19.2579 27.8353ZM22.8412 21.3844C21.8924 22.2074 21.2072 23.2917 20.8712 24.5019H19.8329V18.5153C20.3186 18.3435 20.7395 18.0259 21.0378 17.6059C21.3361 17.1858 21.4974 16.6838 21.4995 16.1686C21.4995 15.9476 21.4117 15.7356 21.2555 15.5793C21.0992 15.4231 20.8872 15.3353 20.6662 15.3353C20.4452 15.3353 20.2332 15.4231 20.0769 15.5793C19.9207 15.7356 19.8329 15.9476 19.8329 16.1686C19.8329 16.3896 19.7451 16.6016 19.5888 16.7579C19.4325 16.9141 19.2205 17.0019 18.9995 17.0019C18.7785 17.0019 18.5666 16.9141 18.4103 16.7579C18.254 16.6016 18.1662 16.3896 18.1662 16.1686C18.1662 15.9476 18.0784 15.7356 17.9221 15.5793C17.7658 15.4231 17.5539 15.3353 17.3329 15.3353C17.1118 15.3353 16.8999 15.4231 16.7436 15.5793C16.5873 15.7356 16.4995 15.9476 16.4995 16.1686C16.5017 16.6838 16.6629 17.1858 16.9613 17.6059C17.2596 18.0259 17.6804 18.3435 18.1662 18.5153V24.5019H17.0645C16.6887 23.2596 15.9838 22.1421 15.0245 21.2678C14.2103 20.5091 13.6301 19.5334 13.3524 18.4557C13.0747 17.378 13.1111 16.2434 13.4572 15.1857C13.8034 14.128 14.4448 13.1914 15.3059 12.4864C16.167 11.7814 17.2118 11.3375 18.317 11.2069C18.5461 11.1814 18.7765 11.1686 19.007 11.1686C20.4383 11.1644 21.8201 11.6925 22.8837 12.6503C23.5001 13.1999 23.9926 13.8744 24.3287 14.6288C24.6647 15.3832 24.8365 16.2005 24.8327 17.0264C24.8289 17.8523 24.6496 18.6679 24.3067 19.4192C23.9638 20.1706 23.4651 20.8404 22.8437 21.3844H22.8412Z" fill="#868686"/>
</g>
</g>
<defs>
<clipPath id="clip0_1_619">
<rect width="20" height="20" fill="white" transform="translate(9 9.5)"/>
</clipPath>
</defs>
</svg>
