<svg width="38" height="39" viewBox="0 0 38 39" fill="none" xmlns="http://www.w3.org/2000/svg">
<circle cx="19" cy="19.5" r="19" fill="#E8F0F5"/>
<g clip-path="url(#clip0_1_588)">
<mask id="mask0_1_588" style="mask-type:luminance" maskUnits="userSpaceOnUse" x="9" y="9" width="20" height="21">
<path d="M29 9.5H9V29.5H29V9.5Z" fill="white"/>
</mask>
<g mask="url(#mask0_1_588)">
<path d="M22.3333 15.3333L22.3142 14.3525C22.8734 14.1613 23.3465 13.7776 23.6491 13.2699C23.9517 12.7623 24.0641 12.1636 23.9663 11.5808C23.8685 10.9979 23.5668 10.4687 23.1151 10.0876C22.6634 9.70653 22.091 9.49827 21.5 9.50001H16.5C15.911 9.49889 15.3406 9.70628 14.8898 10.0854C14.439 10.4646 14.137 10.991 14.0372 11.5715C13.9374 12.152 14.0462 12.7491 14.3445 13.2571C14.6427 13.765 15.1111 14.151 15.6667 14.3467V15.3333C14.562 15.3347 13.503 15.7741 12.7218 16.5552C11.9407 17.3363 11.5013 18.3953 11.5 19.5V25.3333C11.5013 26.438 11.9407 27.497 12.7218 28.2782C13.503 29.0593 14.562 29.4987 15.6667 29.5H22.3333C23.438 29.4987 24.497 29.0593 25.2782 28.2782C26.0593 27.497 26.4987 26.438 26.5 25.3333V19.5C26.4987 18.3953 26.0593 17.3363 25.2782 16.5552C24.497 15.7741 23.438 15.3347 22.3333 15.3333ZM16.5 11.1667H21.5C21.721 11.1667 21.933 11.2545 22.0893 11.4108C22.2455 11.567 22.3333 11.779 22.3333 12C22.3333 12.221 22.2455 12.433 22.0893 12.5893C21.933 12.7456 21.721 12.8333 21.5 12.8333H16.5C16.279 12.8333 16.067 12.7456 15.9107 12.5893C15.7545 12.433 15.6667 12.221 15.6667 12C15.6667 11.779 15.7545 11.567 15.9107 11.4108C16.067 11.2545 16.279 11.1667 16.5 11.1667ZM24.8333 25.3333C24.8333 25.9964 24.5699 26.6323 24.1011 27.1011C23.6323 27.57 22.9964 27.8333 22.3333 27.8333H15.6667C15.0036 27.8333 14.3677 27.57 13.8989 27.1011C13.4301 26.6323 13.1667 25.9964 13.1667 25.3333V19.5C13.1667 18.837 13.4301 18.2011 13.8989 17.7322C14.3677 17.2634 15.0036 17 15.6667 17H16.5C16.721 17 16.933 16.9122 17.0893 16.7559C17.2455 16.5996 17.3333 16.3877 17.3333 16.1667V14.5H20.6442L20.6667 16.1783C20.6697 16.3973 20.7589 16.6063 20.9148 16.7601C21.0708 16.9138 21.281 17 21.5 17H22.3333C22.9964 17 23.6323 17.2634 24.1011 17.7322C24.5699 18.2011 24.8333 18.837 24.8333 19.5V25.3333ZM22.3333 22C22.3333 22.221 22.2455 22.433 22.0893 22.5893C21.933 22.7455 21.721 22.8333 21.5 22.8333H19.8333V24.5C19.8333 24.721 19.7455 24.933 19.5893 25.0893C19.433 25.2455 19.221 25.3333 19 25.3333C18.779 25.3333 18.567 25.2455 18.4107 25.0893C18.2545 24.933 18.1667 24.721 18.1667 24.5V22.8333H16.5C16.279 22.8333 16.067 22.7455 15.9107 22.5893C15.7545 22.433 15.6667 22.221 15.6667 22C15.6667 21.779 15.7545 21.567 15.9107 21.4108C16.067 21.2545 16.279 21.1667 16.5 21.1667H18.1667V19.5C18.1667 19.279 18.2545 19.067 18.4107 18.9108C18.567 18.7545 18.779 18.6667 19 18.6667C19.221 18.6667 19.433 18.7545 19.5893 18.9108C19.7455 19.067 19.8333 19.279 19.8333 19.5V21.1667H21.5C21.721 21.1667 21.933 21.2545 22.0893 21.4108C22.2455 21.567 22.3333 21.779 22.3333 22Z" fill="#868686"/>
</g>
</g>
<defs>
<clipPath id="clip0_1_588">
<rect width="20" height="20" fill="white" transform="translate(9 9.5)"/>
</clipPath>
</defs>
</svg>
